M48
;DRILL file {KiCad 5.0.2+dfsg1-1} date Thu 02 Dec 2021 09:07:43 AM MSK
;FORMAT={-:-/ absolute / inch / decimal}
FMAT,2
INCH,TZ
T1C0.0157
T2C0.0197
T3C0.0315
T4C0.0362
T5C0.0394
T6C0.0472
T7C0.0630
T8C0.0669
T9C0.0917
T10C0.1260
%
G90
G05
T1
X2.1898Y-4.35
X2.1898Y-4.4
X2.1898Y-4.45
X2.3Y-4.4
X2.35Y-4.45
X2.4Y-4.5
X2.525Y-4.175
X2.525Y-4.275
X2.6Y-4.875
X2.675Y-4.875
X2.75Y-3.35
X2.75Y-3.475
X2.75Y-3.6
X2.75Y-4.375
X2.75Y-4.875
X2.825Y-4.875
X2.975Y-3.675
X3.Y-2.4
X3.075Y-4.2336
X3.1Y-3.2063
X3.125Y-2.85
X3.225Y-4.2336
X3.375Y-2.85
X3.4028Y-3.325
X3.45Y-3.625
X3.5921Y-3.2526
X3.625Y-3.3114
X3.65Y-3.0836
X3.65Y-3.275
X3.65Y-3.35
X3.725Y-2.9
X3.7748Y-3.3252
X3.8Y-3.4
X3.8Y-3.55
X3.8021Y-3.3536
X3.8402Y-3.2598
X3.85Y-3.5
X3.9Y-2.825
X3.9Y-3.125
X3.9Y-3.35
X3.9Y-3.4
X3.94Y-3.31
X3.9402Y-3.2698
X3.9404Y-3.2296
X3.95Y-3.075
X3.975Y-3.7
X3.9795Y-3.2215
X4.Y-4.1
X4.0248Y-3.2215
X4.1Y-3.3705
X4.1165Y-2.825
X4.125Y-3.4295
X4.175Y-3.9
X4.1915Y-3.0086
X4.225Y-3.6
X4.25Y-3.7164
X4.325Y-3.975
X4.4Y-4.1164
X4.475Y-3.975
X4.475Y-4.3
X4.525Y-3.2
X4.7914Y-3.875
X4.825Y-2.4414
X4.9Y-3.4086
X4.9Y-3.5914
X4.975Y-3.95
X5.025Y-2.4414
X5.25Y-3.975
X5.3Y-2.425
X5.3Y-2.725
X5.3Y-4.25
X5.325Y-4.025
X5.475Y-3.925
X5.575Y-4.375
X5.625Y-3.45
X5.65Y-4.25
X5.7Y-3.575
X5.7Y-3.675
X5.75Y-3.6
X5.8Y-3.65
X5.8Y-3.75
X5.8Y-3.825
X5.85Y-3.2
X5.85Y-4.25
X5.85Y-4.5586
X5.925Y-4.375
X5.95Y-4.875
X6.025Y-4.875
X6.1Y-4.375
X6.1Y-4.875
X6.15Y-3.425
X6.15Y-3.6
X6.15Y-3.85
X6.15Y-4.025
X6.175Y-4.875
X6.2Y-3.2
X6.2Y-4.25
X6.425Y-2.525
X6.425Y-2.825
X6.575Y-3.9
X6.725Y-4.1336
X7.0106Y-3.6819
X7.0106Y-3.9181
X7.05Y-3.6819
X7.05Y-3.9181
X7.0894Y-3.6819
X7.0894Y-3.9181
X7.175Y-2.725
X7.175Y-3.5
X7.175Y-4.1
X7.225Y-3.775
X7.275Y-3.325
X7.275Y-3.5
X7.275Y-3.775
X7.275Y-3.825
X7.325Y-2.925
X7.375Y-2.5
X7.375Y-2.7
X7.4586Y-3.225
X7.4586Y-3.425
X7.675Y-2.925
X7.725Y-2.925
X7.775Y-2.925
X7.8Y-2.4
X7.8Y-2.6
X7.8Y-2.8
X8.35Y-2.4
X8.35Y-2.5
X8.35Y-2.6
X8.35Y-2.7
X8.35Y-2.8
X8.525Y-3.7
X8.525Y-3.9
X8.95Y-2.4
X7.0106Y-3.7213
X7.0106Y-3.7606
X7.0106Y-3.8
X7.0106Y-3.8394
X7.0106Y-3.8787
X7.05Y-3.7213
X7.05Y-3.7606
X7.05Y-3.8
X7.05Y-3.8394
X7.05Y-3.8787
X7.0894Y-3.7213
X7.0894Y-3.7606
X7.0894Y-3.8
X7.0894Y-3.8394
X7.0894Y-3.8787
T2
X9.6055Y-4.8
X9.6332Y-4.7332
X9.6332Y-4.8668
X9.7Y-4.7055
X9.7Y-4.8945
X9.7668Y-4.7332
X9.7668Y-4.8668
X9.7945Y-4.8
X9.6055Y-2.45
X9.6332Y-2.3832
X9.6332Y-2.5168
X9.7Y-2.3555
X9.7Y-2.5445
X9.7668Y-2.3832
X9.7668Y-2.5168
X9.7945Y-2.45
X2.1555Y-4.8
X2.1832Y-4.7332
X2.1832Y-4.8668
X2.25Y-4.7055
X2.25Y-4.8945
X2.3168Y-4.7332
X2.3168Y-4.8668
X2.3445Y-4.8
X2.1555Y-2.45
X2.1832Y-2.3832
X2.1832Y-2.5168
X2.25Y-2.3555
X2.25Y-2.5445
X2.3168Y-2.3832
X2.3168Y-2.5168
X2.3445Y-2.45
T3
X7.7Y-4.75
X7.7Y-4.85
X8.Y-4.75
X8.Y-4.85
X6.3336Y-3.2781
X6.3336Y-3.475
X8.25Y-4.0531
X8.25Y-4.25
X8.25Y-3.35
X8.25Y-3.5469
X6.3336Y-3.975
X6.3336Y-4.1719
X5.6Y-2.725
X5.6Y-2.825
X5.9Y-2.725
X5.9Y-2.825
X5.6Y-2.425
X5.6Y-2.525
X5.9Y-2.425
X5.9Y-2.525
T4
X2.5713Y-3.4516
X2.5713Y-3.55
X2.65Y-3.4516
X2.65Y-3.55
T5
X2.6Y-2.85
X2.6984Y-2.85
X4.Y-4.
X4.1Y-4.
X4.2Y-4.
X6.45Y-3.625
X6.45Y-3.725
X6.45Y-3.825
X4.55Y-4.7
X4.55Y-4.8
X4.65Y-4.7
X4.65Y-4.8
X4.75Y-4.7
X4.75Y-4.8
X4.85Y-4.7
X4.85Y-4.8
X4.95Y-4.7
X4.95Y-4.8
X5.05Y-4.7
X5.05Y-4.8
X5.15Y-4.7
X5.15Y-4.8
X5.25Y-4.7
X5.25Y-4.8
X8.6Y-2.55
X8.6Y-2.65
X8.7Y-2.55
X8.7Y-2.65
X8.8Y-2.55
X8.8Y-2.65
X8.9Y-2.55
X8.9Y-2.65
X4.65Y-3.95
X4.65Y-4.05
X4.65Y-4.15
X3.45Y-2.525
X3.45Y-2.625
X3.55Y-2.525
X3.55Y-2.625
X3.65Y-2.525
X3.65Y-2.625
X3.75Y-2.525
X3.75Y-2.625
X3.85Y-2.525
X3.85Y-2.625
X3.95Y-2.525
X3.95Y-2.625
X4.05Y-2.525
X4.05Y-2.625
X4.15Y-2.525
X4.15Y-2.625
X4.25Y-2.525
X4.25Y-2.625
X4.35Y-2.525
X4.35Y-2.625
X4.85Y-4.35
X4.9484Y-4.35
X3.45Y-4.35
X3.45Y-4.45
X3.55Y-4.35
X3.55Y-4.45
X3.65Y-4.35
X3.65Y-4.45
X3.75Y-4.35
X3.75Y-4.45
X3.85Y-4.35
X3.85Y-4.45
X3.95Y-4.35
X3.95Y-4.45
X4.05Y-4.35
X4.05Y-4.45
X4.15Y-4.35
X4.15Y-4.45
X4.25Y-4.35
X4.25Y-4.45
X4.35Y-4.35
X4.35Y-4.45
X5.75Y-3.05
X5.75Y-3.15
X5.75Y-3.25
X5.75Y-3.35
X3.05Y-4.
X3.15Y-4.
X3.25Y-4.
X3.35Y-4.
X3.45Y-4.
X3.55Y-4.
X5.15Y-3.05
X5.15Y-3.15
X5.15Y-3.25
X5.15Y-3.35
X5.15Y-3.45
X5.15Y-3.55
X4.8Y-2.7
X4.9Y-2.7
X5.Y-2.7
T6
X8.65Y-4.25
X8.9453Y-4.25
X6.95Y-4.5
X7.1469Y-4.5
X8.65Y-3.35
X8.9453Y-3.35
X6.95Y-3.1
X7.1469Y-3.1
T7
X9.5Y-3.35
X9.5Y-3.65
X9.5Y-3.95
X9.5Y-4.25
T8
X6.65Y-2.525
X6.8059Y-2.525
T9
X2.4646Y-3.2638
X2.4646Y-3.7378
T10
X9.7Y-4.8
X9.7Y-2.45
X2.25Y-4.8
X2.25Y-2.45
T0
M30
